<?xml version="1.0" encoding="utf-8"?>
<!-- Generator: Adobe Illustrator 19.2.0, SVG Export Plug-In . SVG Version: 6.00 Build 0)  -->
<svg version="1.1" id="Layer_1" xmlns="http://www.w3.org/2000/svg" xmlns:xlink="http://www.w3.org/1999/xlink" x="0px" y="0px"
	 viewBox="0 0 500 500" style="enable-background:new 0 0 500 500;" xml:space="preserve">
<style type="text/css">
	.st0{fill:#68EA13;}
	.st1{fill:#FFFFFF;}
	.st2{fill:#60F400;}
	.st3{fill:#FFFFFF;stroke:#646464;stroke-miterlimit:10;}
</style>
<g>
	<g>
		<path class="st0" d="M418.7,192.6c0-22.2-2-43.6-5.8-64c-13.9,5.3-28.5,8.2-43.5,8.2c-33.8,0-65.3-14.3-91.7-39h-73.2
			c-26.4,24.7-57.9,39-91.7,39c-9.6,0-19-1.2-28.2-3.4c-3.2,19-5,38.8-5,59.3c0,135.6,75.9,245.6,169.5,245.6c2.4,0,4.7-0.1,7.1-0.2
			V305.6v132.3C346.6,432.5,418.7,324.7,418.7,192.6z"/>
	</g>
	<path class="st1" d="M164.3,210.7l-42,22.9l15.3,8.3v22.9l26.7,14.6l26.7-14.6v-22.9l7.6-4.2v26.4h7.6v-30.5L164.3,210.7z
		 M190.3,233.6l-26,14.2l-26-14.2l26-14.2L190.3,233.6z M183.4,260.3l-19.1,10.4l-19.1-10.4v-14.2l19.1,10.4l19.1-10.4V260.3z"/>
	<path class="st1" d="M357.1,217c-3.7-1.2-7.8-1.7-11.8-1.7c-6.6,0-13.6,1.3-18.5,5c-4.9-3.7-11.9-5-18.5-5s-13.6,1.3-18.5,5v49.3
		c0,0.8,0.8,1.7,1.7,1.7c0.3,0,0.5-0.2,0.8-0.2c4.5-2.2,11.1-3.7,16-3.7c6.6,0,13.6,1.3,18.5,5c4.5-2.9,12.8-5,18.5-5
		c5.6,0,11.3,1,16,3.5c0.3,0.2,0.5,0.2,0.8,0.2c0.8,0,1.7-0.8,1.7-1.7v-49.1C361.9,218.9,359.7,217.9,357.1,217z M357.1,262.5
		c-3.7-1.2-7.7-1.7-11.8-1.7c-5.7,0-14,2.2-18.5,5v-38.7c4.5-2.9,12.8-5,18.5-5c4,0,8.1,0.5,11.8,1.7V262.5z"/>
	<g>
		<g>
			<g>
				<path class="st1" d="M265.1,244h-32c-1.5,0-2.7,1.2-2.7,2.7v17c0,1.5,1.2,2.7,2.7,2.7h32c0.7,0,1.4-0.3,1.9-0.8s0.8-1.1,0.8-1.9
					v-17C267.8,245.2,266.6,244,265.1,244z"/>
			</g>
		</g>
		<g>
			<g>
				<path class="st1" d="M274.3,298.6l-9-27c0,0-0.1,0-0.1,0l-32,0c0,0-0.1,0-0.1,0l-9,27c-0.2,0.6-0.2,1.3,0.1,1.9l22.4,52.2V307
					c-1.1-0.4-2.1-1-3-1.9c-3.1-3.1-3.1-8.2,0-11.3c3.1-3.1,8.2-3.1,11.3,0c3.1,3.1,3.1,8.2,0,11.3c-0.9,0.9-1.9,1.5-3,1.9v45.8
					l4.4-10.3v-36.8v36.8l18-41.9C274.4,299.9,274.5,299.2,274.3,298.6z"/>
			</g>
		</g>
	</g>
	<polygon class="st1" points="204.5,97.7 277.7,97.7 265.8,232.8 228.5,232.8 	"/>
	<g>
		<rect x="79.6" y="438.9" class="st0" width="176.6" height="47.5"/>
		<rect x="256.2" y="438.9" class="st0" width="163.5" height="47.5"/>
		<g>
			<path class="st1" d="M156.3,470.4c-1.3,0.4-3.8,1.1-6.7,1.1c-3.3,0-6.1-0.8-8.2-2.6c-1.9-1.6-3.1-4.3-3.1-7.4
				c0-5.9,4.5-10.2,11.9-10.2c2.5,0,4.5,0.5,5.5,0.9l-0.7,2.1c-1.2-0.5-2.6-0.9-4.9-0.9c-5.3,0-8.8,3-8.8,8c0,5,3.4,8,8.5,8
				c1.9,0,3.1-0.2,3.8-0.5V463H149v-2.1h7.2V470.4z"/>
			<path class="st1" d="M160.5,461.5c0-1.7,0-3.1-0.1-4.4h2.5l0.1,2.8h0.1c0.7-1.9,2.4-3.1,4.4-3.1c0.3,0,0.6,0,0.8,0.1v2.4
				c-0.3-0.1-0.6-0.1-1-0.1c-2,0-3.5,1.4-3.8,3.3c-0.1,0.4-0.1,0.8-0.1,1.2v7.6h-2.8V461.5z"/>
			<path class="st1" d="M172.4,464.7c0.1,3.5,2.5,4.9,5.4,4.9c2.1,0,3.3-0.3,4.4-0.7l0.5,1.9c-1,0.4-2.7,0.9-5.2,0.9
				c-4.9,0-7.8-2.9-7.8-7.2s2.8-7.7,7.4-7.7c5.1,0,6.5,4.1,6.5,6.7c0,0.5-0.1,0.9-0.1,1.2H172.4z M180.8,462.8c0-1.6-0.7-4.2-4-4.2
				c-2.9,0-4.2,2.4-4.4,4.2H180.8z"/>
			<path class="st1" d="M188.8,464.7c0.1,3.5,2.5,4.9,5.4,4.9c2.1,0,3.3-0.3,4.4-0.7l0.5,1.9c-1,0.4-2.7,0.9-5.2,0.9
				c-4.9,0-7.8-2.9-7.8-7.2s2.8-7.7,7.4-7.7c5.1,0,6.5,4.1,6.5,6.7c0,0.5-0.1,0.9-0.1,1.2H188.8z M197.2,462.8c0-1.6-0.7-4.2-4-4.2
				c-2.9,0-4.2,2.4-4.4,4.2H197.2z"/>
			<path class="st1" d="M203.5,460.9c0-1.5,0-2.7-0.1-3.9h2.5l0.2,2.4h0.1c0.8-1.4,2.6-2.7,5.2-2.7c2.2,0,5.6,1.2,5.6,6.1v8.5H214
				v-8.2c0-2.3-0.9-4.2-3.7-4.2c-1.9,0-3.4,1.2-3.8,2.6c-0.1,0.3-0.2,0.8-0.2,1.2v8.6h-2.9V460.9z"/>
			<path class="st1" d="M231.4,451.5v11.7c0,4.4,2.2,6.3,5.1,6.3c3.3,0,5.3-1.9,5.3-6.3v-11.7h2.9V463c0,6.1-3.6,8.6-8.3,8.6
				c-4.5,0-7.9-2.3-7.9-8.5v-11.7H231.4z"/>
			<path class="st1" d="M252.2,459.4L252.2,459.4l-0.2-2.4h-2.5c0.1,1.2,0.1,2.4,0.1,3.9v10.4h2.9v-8.6c0-0.4,0.1-0.9,0.2-1.2
				c0.5-1.4,1.8-2.5,3.6-2.6v-2.1C254.3,457.2,252.9,458.3,252.2,459.4z"/>
			<path class="st1" d="M257.4,456.7c-0.4,0-0.8,0-1.2,0.1v2.1c0.1,0,0.2,0,0.3,0c2.7,0,3.7,1.9,3.7,4.2v8.2h2.9v-8.5
				C263,457.9,259.6,456.7,257.4,456.7z"/>
			<path class="st1" d="M270.9,453.1c0,0.9-0.7,1.6-1.8,1.6c-1,0-1.7-0.7-1.7-1.6c0-0.9,0.7-1.6,1.8-1.6
				C270.2,451.4,270.9,452.2,270.9,453.1z M267.7,471.3v-14.3h2.9v14.3H267.7z"/>
			<path class="st1" d="M276.4,457.1l3.1,8c0.5,1.3,0.9,2.5,1.3,3.7h0.1c0.4-1.2,0.8-2.4,1.3-3.7l3.1-8h3l-6.2,14.3h-2.7l-6-14.3
				H276.4z"/>
			<path class="st1" d="M292.2,464.7c0.1,3.5,2.5,4.9,5.4,4.9c2.1,0,3.3-0.3,4.4-0.7l0.5,1.9c-1,0.4-2.7,0.9-5.2,0.9
				c-4.9,0-7.8-2.9-7.8-7.2s2.8-7.7,7.4-7.7c5.1,0,6.5,4.1,6.5,6.7c0,0.5-0.1,0.9-0.1,1.2H292.2z M300.6,462.8c0-1.6-0.7-4.2-4-4.2
				c-2.9,0-4.2,2.4-4.4,4.2H300.6z"/>
			<path class="st1" d="M307,461.5c0-1.7,0-3.1-0.1-4.4h2.5l0.1,2.8h0.1c0.7-1.9,2.4-3.1,4.4-3.1c0.3,0,0.6,0,0.8,0.1v2.4
				c-0.3-0.1-0.6-0.1-1-0.1c-2,0-3.5,1.4-3.8,3.3c-0.1,0.4-0.1,0.8-0.1,1.2v7.6H307V461.5z"/>
			<path class="st1" d="M317.2,468.7c0.8,0.5,2.3,1,3.8,1c2.1,0,3.1-0.9,3.1-2.1c0-1.2-0.8-1.9-2.9-2.6c-2.8-0.9-4.2-2.3-4.2-4
				c0-2.3,2.1-4.2,5.4-4.2c1.6,0,3,0.4,3.9,0.9l-0.7,1.9c-0.6-0.4-1.8-0.8-3.2-0.8c-1.7,0-2.6,0.9-2.6,1.9c0,1.2,0.9,1.7,3,2.4
				c2.7,0.9,4.1,2.2,4.1,4.3c0,2.5-2.2,4.3-5.9,4.3c-1.7,0-3.3-0.4-4.4-1L317.2,468.7z"/>
			<path class="st1" d="M333.7,453.1c0,0.9-0.7,1.6-1.8,1.6c-1,0-1.7-0.7-1.7-1.6c0-0.9,0.7-1.6,1.8-1.6
				C333,451.4,333.7,452.2,333.7,453.1z M330.5,471.3v-14.3h2.9v14.3H330.5z"/>
			<path class="st1" d="M341.6,453v4.1h4.1v2h-4.1v7.7c0,1.8,0.6,2.8,2.2,2.8c0.7,0,1.3-0.1,1.7-0.2l0.1,1.9
				c-0.6,0.2-1.4,0.4-2.5,0.4c-1.3,0-2.4-0.4-3.1-1.1c-0.8-0.8-1.1-2-1.1-3.7V459h-2.4v-2h2.4v-3.4L341.6,453z"/>
			<path class="st1" d="M350.3,457.1l3.5,8.4c0.4,0.9,0.7,2.1,1,2.9h0.1c0.3-0.9,0.6-1.9,1-3l3.1-8.4h3l-4.3,10.2
				c-2.1,4.9-3.5,7.4-5.4,8.9c-1.4,1.1-2.8,1.6-3.5,1.7l-0.7-2.2c0.7-0.2,1.7-0.6,2.5-1.3c0.8-0.6,1.8-1.6,2.4-2.9
				c0.1-0.3,0.2-0.5,0.2-0.6c0-0.1-0.1-0.4-0.2-0.7l-5.8-13.1H350.3z"/>
		</g>
	</g>
	<g>
		<path class="st2" d="M253.9,86c-20-20,0-87.5,0-87.5c-3.5,76.7,78.4,142.7,6.2,174.2l-0.2-0.2C279.5,146.5,277.5,109.5,253.9,86z"
			/>
		<path class="st2" d="M256.6,130c-9.9-9.9,0-43,0-43c-1.7,37.7,38.6,70.2,3.1,85.7l-0.1-0.1C269.2,159.8,268.2,141.6,256.6,130z"/>
		<path class="st2" d="M231.6,86c20-20,0-87.5,0-87.5c3.5,76.7-78.4,142.7-6.2,174.2l0.2-0.2C206,146.5,208,109.5,231.6,86z"/>
		<path class="st2" d="M228.6,139.1c7.4-7.4,0-32.5,0-32.5c1.3,28.5-29.1,53-2.3,64.7l0.1-0.1C219.1,161.6,219.9,147.9,228.6,139.1z
			"/>
	</g>
	<path class="st2" d="M205.2,624.8v0.2c2.2,0.2,4.5,0.2,6.8,0.2C209.7,625.3,207.4,625.1,205.2,624.8z"/>
	<g>
		<polygon class="st3" points="404.5,147.5 406,158.7 416.1,163.8 406,168.7 404.3,179.8 396.4,171.7 385.3,173.5 390.7,163.6 
			385.5,153.6 396.6,155.5 		"/>
		<polygon class="st3" points="405.9,178.2 407.5,189.4 417.5,194.5 407.4,199.4 405.7,210.5 397.9,202.4 386.8,204.2 392.1,194.3 
			386.9,184.3 398,186.2 		"/>
		<polygon class="st3" points="403.7,215.2 405.3,226.3 415.3,231.4 405.2,236.3 403.5,247.4 395.7,239.3 384.6,241.1 389.9,231.2 
			384.7,221.2 395.8,223.2 		"/>
		<polygon class="st3" points="397.5,250.1 399,261.2 409.1,266.3 398.9,271.2 397.2,282.3 389.4,274.2 378.3,276 383.6,266.1 
			378.4,256.1 389.5,258.1 		"/>
		<polygon class="st3" points="387.5,282.4 389,293.6 399.1,298.6 388.9,303.6 387.2,314.7 379.4,306.6 368.3,308.4 373.6,298.4 
			368.4,288.4 379.5,290.4 		"/>
		<polygon class="st3" points="374.1,311.7 375.6,322.9 385.7,328 375.6,332.9 373.9,344 366.1,335.9 354.9,337.7 360.3,327.8 
			355.1,317.8 366.2,319.7 		"/>
		<polygon class="st3" points="357.8,337.5 359.3,348.6 369.4,353.7 359.2,358.6 357.5,369.8 349.7,361.6 338.6,363.4 343.9,353.5 
			338.7,343.5 349.8,345.5 		"/>
		<polygon class="st3" points="338.8,359.2 340.3,370.3 350.4,375.4 340.2,380.3 338.5,391.4 330.7,383.3 319.6,385.1 324.9,375.2 
			319.7,365.2 330.8,367.2 		"/>
		<polygon class="st3" points="317.5,376.2 319,387.4 329.1,392.5 318.9,397.4 317.2,408.5 309.4,400.4 298.3,402.2 303.6,392.3 
			298.5,382.3 309.5,384.3 		"/>
		<polygon class="st3" points="294.2,388.2 295.8,399.4 305.8,404.4 295.7,409.3 294,420.5 286.2,412.4 275.1,414.2 280.4,404.2 
			275.2,394.2 286.3,396.2 		"/>
		<polygon class="st3" points="269.4,394.6 271,405.7 281,410.8 270.9,415.7 269.2,426.8 261.4,418.7 250.3,420.5 255.6,410.6 
			250.4,400.6 261.5,402.6 		"/>
		<polygon class="st3" points="242.6,394.7 244.2,405.9 254.2,410.9 244.1,415.8 242.4,427 234.6,418.8 223.5,420.7 228.8,410.7 
			223.6,400.7 234.7,402.7 		"/>
		<polygon class="st3" points="217.7,388.5 219.2,399.7 229.3,404.7 219.1,409.6 217.4,420.8 209.6,412.7 198.5,414.5 203.8,404.5 
			198.7,394.5 209.7,396.5 		"/>
		<polygon class="st3" points="194.3,376.7 195.8,387.8 205.9,392.9 195.8,397.8 194.1,408.9 186.3,400.8 175.1,402.6 180.5,392.7 
			175.3,382.7 186.4,384.7 		"/>
		<polygon class="st3" points="172.9,359.6 174.4,370.8 184.5,375.8 174.3,380.8 172.6,391.9 164.8,383.8 153.7,385.6 159,375.7 
			153.9,365.6 165,367.6 		"/>
		<polygon class="st3" points="153.8,338 155.3,349.1 165.4,354.2 155.2,359.1 153.5,370.2 145.7,362.1 134.6,363.9 139.9,354 
			134.7,344 145.8,346 		"/>
		<polygon class="st3" points="137.3,312.2 138.8,323.3 148.9,328.4 138.7,333.3 137,344.4 129.2,336.3 118.1,338.1 123.4,328.2 
			118.3,318.2 129.4,320.2 		"/>
		<polygon class="st3" points="123.8,282.8 125.4,293.9 135.4,299 125.3,303.9 123.6,315 115.8,306.9 104.7,308.7 110,298.8 
			104.8,288.8 115.9,290.8 		"/>
		<polygon class="st3" points="113.8,250.3 115.3,261.5 125.4,266.5 115.2,271.4 113.5,282.6 105.7,274.5 94.6,276.3 99.9,266.3 
			94.8,256.3 105.9,258.3 		"/>
		<polygon class="st3" points="107.4,215.3 109,226.5 119,231.5 108.9,236.4 107.2,247.6 99.4,239.4 88.3,241.3 93.6,231.3 
			88.4,221.3 99.5,223.3 		"/>
		<polygon class="st3" points="105.2,178.2 106.8,189.4 116.8,194.5 106.7,199.4 105,210.5 97.2,202.4 86.1,204.2 91.4,194.3 
			86.2,184.3 97.3,186.2 		"/>
		<polygon class="st3" points="106.7,147.5 108.2,158.7 118.3,163.8 108.1,168.7 106.4,179.8 98.6,171.7 87.5,173.5 92.8,163.6 
			87.7,153.6 98.8,155.5 		"/>
	</g>
</g>
</svg>
